<mxfile host="app.diagrams.net" modified="2023-04-11T04:27:39.394Z" agent="Mozilla/5.0 (Macintosh; Intel Mac OS X 10_15_7) AppleWebKit/537.36 (KHTML, like Gecko) Chrome/112.0.0.0 Safari/537.36" version="21.1.4" etag="0Ilh6pocmsdTevDA6ZQk" type="github">
  <diagram name="第 1 页" id="wYGH0gN_c3etRvzWE0lO">
    <mxGraphModel>
      <root>
        <mxCell id="0" />
        <mxCell id="1" parent="0" />
      </root>
    </mxGraphModel>
  </diagram>
</mxfile>
